<svg xmlns="http://www.w3.org/2000/svg" width="24" height="24" fill="none"><path fill="#fff" d="M20.25 5.25H16.5V4.5a2.25 2.25 0 0 0-2.25-2.25h-4.5A2.25 2.25 0 0 0 7.5 4.5v.75H3.75a1.5 1.5 0 0 0-1.5 1.5v12a1.5 1.5 0 0 0 1.5 1.5h16.5a1.5 1.5 0 0 0 1.5-1.5v-12a1.5 1.5 0 0 0-1.5-1.5ZM9 4.5a.75.75 0 0 1 .75-.75h4.5a.75.75 0 0 1 .75.75v.75H9V4.5Zm11.25 2.25v3.9a17.257 17.257 0 0 1-16.5.001V6.75h16.5Zm0 12H3.75v-6.409a18.772 18.772 0 0 0 16.5 0v6.409ZM9.75 10.5a.75.75 0 0 1 .75-.75h3a.75.75 0 1 1 0 1.5h-3a.75.75 0 0 1-.75-.75Z"/></svg>