<svg xmlns="http://www.w3.org/2000/svg" width="24" height="24" fill="none"><path fill="#fff" d="M20.752 9.76a.75.75 0 0 0-.616.864c.076.455.114.915.114 1.376a8.214 8.214 0 0 1-2.085 5.476 7.468 7.468 0 0 0-3.38-2.695 4.5 4.5 0 1 0-5.57 0 7.468 7.468 0 0 0-3.38 2.695 8.25 8.25 0 0 1 7.541-13.612.75.75 0 0 0 .248-1.479 9.743 9.743 0 1 0 7.991 7.991.75.75 0 0 0-.863-.616ZM9 11.25a3 3 0 1 1 6 0 3 3 0 0 1-6 0Zm-2.055 7.266a6 6 0 0 1 10.11 0 8.234 8.234 0 0 1-10.11 0ZM22.281 4.28l-3 3a.75.75 0 0 1-1.061 0l-1.5-1.5a.75.75 0 0 1 1.06-1.062l.97.97 2.47-2.47a.75.75 0 1 1 1.06 1.062Z"/></svg>