<svg xmlns="http://www.w3.org/2000/svg" width="24" height="24" fill="none"><path fill="#fff" d="M7.05 18.6a.75.75 0 0 0 1.05-.15 4.874 4.874 0 0 1 7.8 0 .75.75 0 1 0 1.2-.9 6.363 6.363 0 0 0-2.569-2.033 3.75 3.75 0 1 0-5.057 0A6.363 6.363 0 0 0 6.9 17.55a.75.75 0 0 0 .15 1.05ZM12 10.5a2.25 2.25 0 1 1 0 4.5 2.25 2.25 0 0 1 0-4.5Zm6.75-8.25H5.25a1.5 1.5 0 0 0-1.5 1.5v16.5a1.5 1.5 0 0 0 1.5 1.5h13.5a1.5 1.5 0 0 0 1.5-1.5V3.75a1.5 1.5 0 0 0-1.5-1.5Zm0 18H5.25V3.75h13.5v16.5ZM8.25 6A.75.75 0 0 1 9 5.25h6a.75.75 0 1 1 0 1.5H9A.75.75 0 0 1 8.25 6Z"/></svg>