<svg xmlns="http://www.w3.org/2000/svg" width="78" height="78" fill="none"><path fill="#fff" d="M32.438 36.375a1.313 1.313 0 0 1 1.312-1.313h13.125a1.313 1.313 0 0 1 0 2.626H33.75a1.313 1.313 0 0 1-1.313-1.313Zm1.312 6.563h13.125a1.313 1.313 0 0 0 0-2.626H33.75a1.313 1.313 0 0 0 0 2.626ZM56.063 28.5v19.688a3.937 3.937 0 0 1-3.938 3.937H23.25a3.938 3.938 0 0 1-3.938-3.92V32.439a1.313 1.313 0 0 1 2.625 0v15.75a1.313 1.313 0 0 0 2.625 0V28.5a2.625 2.625 0 0 1 2.625-2.625h26.25a2.625 2.625 0 0 1 2.626 2.625Zm-2.626 0h-26.25v19.688c.001.447-.075.89-.224 1.312h25.162a1.313 1.313 0 0 0 1.313-1.313V28.5Z"/></svg>