<svg xmlns="http://www.w3.org/2000/svg" width="78" height="78" fill="none"><path fill="#fff" d="M52.125 33.75a2.625 2.625 0 0 0 2.625-2.625v-5.25a2.625 2.625 0 0 0-2.625-2.625h-5.25a2.625 2.625 0 0 0-2.625 2.625v1.313h-10.5v-1.313a2.625 2.625 0 0 0-2.625-2.625h-5.25a2.625 2.625 0 0 0-2.625 2.625v5.25a2.625 2.625 0 0 0 2.625 2.625h1.313v10.5h-1.313a2.625 2.625 0 0 0-2.625 2.625v5.25a2.625 2.625 0 0 0 2.625 2.625h5.25a2.625 2.625 0 0 0 2.625-2.625v-1.313h10.5v1.313a2.625 2.625 0 0 0 2.625 2.625h5.25a2.625 2.625 0 0 0 2.625-2.625v-5.25a2.625 2.625 0 0 0-2.625-2.625h-1.313v-10.5h1.313Zm-5.25-7.875h5.25v5.25h-5.25v-5.25Zm-21 0h5.25v2.609a.082.082 0 0 0 0 .032v2.609h-5.25v-5.25Zm5.25 26.25h-5.25v-5.25h5.25v2.609a.082.082 0 0 0 0 .032v2.609Zm21 0h-5.25v-5.25h5.25v5.25Zm-3.938-7.875h-1.312a2.625 2.625 0 0 0-2.625 2.625v1.313h-10.5v-1.313a2.625 2.625 0 0 0-2.625-2.625h-1.313v-10.5h1.313a2.625 2.625 0 0 0 2.625-2.625v-1.313h10.5v1.313a2.625 2.625 0 0 0 2.625 2.625h1.313v10.5Z"/></svg>