<svg xmlns="http://www.w3.org/2000/svg" width="40" height="68" fill="none"><path fill="#fff" fill-rule="evenodd" d="M20 40c11.046 0 20-8.954 20-20S31.046 0 20 0 0 8.954 0 20s8.954 20 20 20Zm6.24-30.683c.303-1.079-.744-1.717-1.7-1.036L11.193 17.79c-1.037.738-.874 2.21.245 2.21h3.515v-.027h6.85l-5.582 1.97-2.46 8.74c-.304 1.079.743 1.717 1.699 1.036l13.347-9.509c1.037-.738.874-2.21-.245-2.21h-5.33L26.24 9.317Z" clip-rule="evenodd"/><path fill="#fff" d="M1.727 53.664V52.36h8.812v1.305H6.875V64H5.406V53.664h-3.68Zm13.078 10.523c-.844 0-1.57-.187-2.18-.562a3.736 3.736 0 0 1-1.398-1.563c-.329-.671-.493-1.45-.493-2.335 0-.891.162-1.675.485-2.352.323-.682.778-1.214 1.367-1.594.588-.385 1.276-.578 2.062-.578.474 0 .935.08 1.383.242.453.157.862.41 1.227.758.364.344.654.794.867 1.352.213.552.32 1.221.32 2.008v.562h-6.78v-1.18h6.023l-.649.43c0-.573-.091-1.078-.273-1.516a2.314 2.314 0 0 0-.805-1.039c-.354-.25-.792-.375-1.313-.375-.526 0-.976.128-1.351.383-.37.255-.654.591-.852 1.008a3.042 3.042 0 0 0-.297 1.336v.766c0 .64.11 1.184.329 1.632.223.448.533.79.93 1.024.4.234.869.351 1.405.351.35 0 .665-.05.946-.148a1.99 1.99 0 0 0 .726-.461 1.96 1.96 0 0 0 .461-.75l1.36.336c-.13.448-.36.841-.688 1.18a3.377 3.377 0 0 1-1.203.796c-.474.193-1.01.29-1.61.29Zm9.14 0c-.786 0-1.476-.187-2.07-.562a3.815 3.815 0 0 1-1.39-1.57c-.334-.672-.5-1.453-.5-2.344 0-.906.166-1.695.5-2.367.333-.677.796-1.203 1.39-1.578.594-.375 1.284-.563 2.07-.563.427 0 .828.057 1.203.172.38.11.724.27 1.032.484a3.272 3.272 0 0 1 1.297 1.805l-1.344.344a2.016 2.016 0 0 0-.29-.625 1.999 1.999 0 0 0-.468-.492 1.959 1.959 0 0 0-.633-.32 2.561 2.561 0 0 0-.797-.118c-.573 0-1.047.151-1.422.453a2.693 2.693 0 0 0-.843 1.188 4.601 4.601 0 0 0-.274 1.617c0 .578.091 1.112.274 1.602.187.49.468.882.843 1.18.375.296.85.444 1.422.444.297 0 .565-.039.805-.117a2.17 2.17 0 0 0 .648-.328 2.136 2.136 0 0 0 .766-1.172l1.344.336a3.329 3.329 0 0 1-1.297 1.86 3.599 3.599 0 0 1-1.047.5 4.22 4.22 0 0 1-1.219.171Zm6.922-5.374V64H29.47V52.36h1.398v5.062h-.258c.266-.797.644-1.365 1.133-1.703.495-.344 1.07-.516 1.727-.516.588 0 1.104.122 1.547.367.448.24.797.605 1.047 1.094.25.484.374 1.096.374 1.836V64H35.04v-5.383c0-.677-.177-1.203-.531-1.578-.35-.38-.828-.57-1.438-.57-.416 0-.791.09-1.125.273a1.92 1.92 0 0 0-.789.79c-.192.348-.289.775-.289 1.28Z"/></svg>