<svg xmlns="http://www.w3.org/2000/svg" width="49" height="68" fill="none"><path fill="#fff" fill-rule="evenodd" d="M17 0a1 1 0 0 1 1 1v7.396c0 .223.27.335.427.177L26.414.586A2 2 0 0 1 27.828 0h8.758a1 1 0 0 1 .707.293l3 3a1 1 0 0 1 0 1.414l-3.866 3.866a.25.25 0 0 0 .176.427h7.983a1 1 0 0 1 .707.293l3 3a1 1 0 0 1 0 1.414l-3.94 3.94a.5.5 0 0 0 0 .707l3.233 3.232a4.828 4.828 0 0 1 0 6.828l-11 11a2 2 0 0 1-1.414.586H32a1 1 0 0 1-1-1v-7.396a.25.25 0 0 0-.427-.177l-7.987 7.987a2 2 0 0 1-1.414.586h-8.758a1 1 0 0 1-.707-.293l-3-3a1 1 0 0 1 0-1.414l3.866-3.866a.25.25 0 0 0-.177-.427H4.414a1 1 0 0 1-.707-.293l-3-3a1 1 0 0 1 0-1.414l3.94-3.94a.5.5 0 0 0 0-.707l-3.233-3.232a4.829 4.829 0 0 1 0-6.828l11-11A2 2 0 0 1 13.828 0H17Zm3.071 9a5.002 5.002 0 0 0-3.536 1.465L5.854 21.146a.5.5 0 0 0 .353.854h14.586a.5.5 0 0 1 .354.854l-7.293 7.293a.5.5 0 0 0 .353.853h14.722a5.002 5.002 0 0 0 3.536-1.465l10.681-10.681a.5.5 0 0 0-.272-.848L42.793 18H28.207a.5.5 0 0 1-.354-.854l7.294-7.292A.5.5 0 0 0 34.793 9H20.071Z" clip-rule="evenodd"/><path fill="#fff" d="M5.375 64V52.36h4.023c.896 0 1.636.153 2.22.46.588.308 1.025.732 1.312 1.274.291.536.437 1.153.437 1.851s-.146 1.313-.437 1.844c-.287.531-.724.945-1.313 1.242-.588.297-1.328.446-2.219.446H6.203v-1.313h3.14c.605 0 1.095-.089 1.47-.266a1.75 1.75 0 0 0 .82-.773c.177-.333.265-.727.265-1.18 0-.463-.088-.864-.265-1.203a1.76 1.76 0 0 0-.828-.797c-.375-.192-.867-.289-1.477-.289H6.852V64H5.375Zm6.703 0-2.812-5.242h1.664L13.79 64h-1.712Zm6.805.188c-.844 0-1.57-.188-2.18-.563a3.737 3.737 0 0 1-1.398-1.563c-.328-.671-.492-1.45-.492-2.335 0-.891.161-1.675.484-2.352.323-.682.779-1.214 1.367-1.594.589-.385 1.276-.578 2.063-.578.474 0 .934.08 1.382.242.453.157.862.41 1.227.758.365.344.654.794.867 1.352.214.552.32 1.221.32 2.008v.562h-6.78v-1.18h6.023l-.649.43c0-.573-.091-1.078-.273-1.516a2.314 2.314 0 0 0-.805-1.039c-.354-.25-.792-.375-1.312-.375-.526 0-.977.128-1.352.383a2.51 2.51 0 0 0-.852 1.008 3.042 3.042 0 0 0-.296 1.336v.766c0 .64.109 1.184.328 1.632.224.448.534.79.93 1.024.4.234.87.351 1.406.351.349 0 .664-.05.945-.148a1.99 1.99 0 0 0 .727-.461 1.96 1.96 0 0 0 .46-.75l1.36.336c-.13.448-.36.841-.688 1.18a3.376 3.376 0 0 1-1.203.796c-.474.193-1.01.29-1.61.29Zm9.062-8.868v1.196H23.43V55.32h4.515Zm-3.18-2.101h1.4v8.547c0 .38.075.659.226.836.156.171.419.257.789.257.088 0 .2-.007.336-.023.14-.02.268-.042.382-.063l.258 1.188c-.14.047-.302.08-.484.102a4.94 4.94 0 0 1-.54.03c-.75 0-1.333-.192-1.75-.577-.41-.391-.616-.938-.616-1.641v-8.656Zm7.47 10.976a3.624 3.624 0 0 1-1.5-.304 2.562 2.562 0 0 1-1.07-.907c-.261-.4-.392-.885-.392-1.453 0-.5.097-.903.29-1.21.197-.313.46-.558.789-.735a4.023 4.023 0 0 1 1.093-.406c.401-.089.805-.16 1.211-.211.521-.068.943-.12 1.266-.157.328-.036.57-.098.726-.187.157-.089.235-.24.235-.453v-.047c0-.36-.068-.664-.203-.914a1.36 1.36 0 0 0-.617-.578c-.271-.136-.607-.203-1.008-.203-.412 0-.766.065-1.063.195a2.19 2.19 0 0 0-.726.492 1.976 1.976 0 0 0-.399.617l-1.351-.398c.203-.526.49-.943.859-1.25.37-.313.784-.536 1.242-.672.464-.14.93-.21 1.399-.21.312 0 .656.038 1.03.116a3.23 3.23 0 0 1 1.071.438c.339.208.617.513.836.914.219.4.328.927.328 1.578V64h-1.375v-1.188h-.093a2.386 2.386 0 0 1-.47.626 2.59 2.59 0 0 1-.843.539c-.344.145-.766.218-1.266.218Zm.242-1.234c.52 0 .958-.102 1.312-.305.36-.203.63-.466.813-.789a2.01 2.01 0 0 0 .28-1.023v-1.188c-.056.068-.179.128-.366.18a6.556 6.556 0 0 1-.649.14c-.24.042-.476.079-.71.11-.23.026-.417.05-.563.07a4.553 4.553 0 0 0-.946.219 1.656 1.656 0 0 0-.703.438c-.177.192-.265.455-.265.789 0 .296.075.546.226.75.157.198.37.349.64.453.272.104.582.156.93.156ZM38.687 64v-8.68h1.399V64h-1.398Zm.711-10.133a.982.982 0 0 1-.687-.265.883.883 0 0 1-.281-.657c0-.26.093-.479.28-.656a.966.966 0 0 1 .688-.273c.271 0 .5.09.688.273a.855.855 0 0 1 .289.656.872.872 0 0 1-.29.657.964.964 0 0 1-.687.265Zm4.5-1.508V64H42.5V52.36h1.398Z"/></svg>