<svg xmlns="http://www.w3.org/2000/svg" width="24" height="24" fill="none"><path fill="#fff" d="M10.992 14.805a5.625 5.625 0 1 0-6.234 0A8.984 8.984 0 0 0 .33 18.34a.75.75 0 1 0 1.256.82 7.5 7.5 0 0 1 12.576 0 .75.75 0 0 0 1.256-.82 8.984 8.984 0 0 0-4.427-3.535Zm-7.242-4.68a4.125 4.125 0 1 1 8.25 0 4.125 4.125 0 0 1-8.25 0Zm19.7 9.253a.75.75 0 0 1-1.037-.218 7.484 7.484 0 0 0-6.288-3.41.75.75 0 1 1 0-1.5 4.125 4.125 0 1 0-1.532-7.957.75.75 0 1 1-.557-1.392 5.625 5.625 0 0 1 5.206 9.904 8.984 8.984 0 0 1 4.427 3.535.75.75 0 0 1-.218 1.038Z"/></svg>