<svg xmlns="http://www.w3.org/2000/svg" width="49" height="68" fill="none"><path fill="#fff" fill-rule="evenodd" d="M12.02 2.617V0H6v24.117C6 34.546 14.507 43 25 43s19-8.454 19-18.883V0h-6.02v2.617H27.822V0h-6.02v2.617H12.02Zm9.782 34.006c-5.57-1.403-9.704-6.383-9.781-12.335a12.797 12.797 0 0 1 6.034 3.366 12.708 12.708 0 0 1 2.773 4.124c.64 1.536.971 3.182.974 4.845Zm.51-13.2a18.79 18.79 0 0 1 2.5 3.076 18.72 18.72 0 0 1 5.595-5.56 18.787 18.787 0 0 1-5.595-5.56 18.714 18.714 0 0 1-5.595 5.56 18.791 18.791 0 0 1 3.095 2.485Zm15.668.78c-.04 6.123-4.373 11.234-10.158 12.509v-.069c0-1.67.33-3.322.974-4.865a12.708 12.708 0 0 1 2.772-4.124 12.799 12.799 0 0 1 6.412-3.451ZM21.346 8.6a12.708 12.708 0 0 1-3.29 5.624 12.797 12.797 0 0 1-6.036 3.367V8.6h9.326Zm16.634 9.075V8.6h-9.702a12.708 12.708 0 0 0 3.29 5.624 12.799 12.799 0 0 0 6.412 3.451Z" clip-rule="evenodd"/><path fill="#fff" d="M1.375 64V52.36h1.477v5.03h6.125v-5.03h1.476V64H8.977v-5.305H2.852V64H1.375Zm15.305.188c-.844 0-1.57-.188-2.18-.563a3.736 3.736 0 0 1-1.398-1.563c-.329-.671-.493-1.45-.493-2.335 0-.891.162-1.675.485-2.352.323-.682.778-1.214 1.367-1.594.588-.385 1.276-.578 2.062-.578.474 0 .935.08 1.383.242.453.157.862.41 1.227.758.364.344.654.794.867 1.352.213.552.32 1.221.32 2.008v.562h-6.78v-1.18h6.023l-.649.43c0-.573-.091-1.078-.273-1.516a2.314 2.314 0 0 0-.805-1.039c-.354-.25-.792-.375-1.313-.375-.526 0-.976.128-1.351.383-.37.255-.654.591-.852 1.008a3.042 3.042 0 0 0-.297 1.336v.766c0 .64.11 1.184.329 1.632.223.448.533.79.93 1.024.4.234.869.351 1.405.351.35 0 .665-.05.946-.148a1.99 1.99 0 0 0 .726-.461 1.96 1.96 0 0 0 .461-.75l1.36.336c-.13.448-.36.841-.688 1.18a3.377 3.377 0 0 1-1.203.796c-.474.193-1.01.29-1.61.29Zm8.195.007a3.624 3.624 0 0 1-1.5-.304 2.562 2.562 0 0 1-1.07-.907c-.26-.4-.39-.885-.39-1.453 0-.5.095-.903.288-1.21.198-.313.461-.558.79-.735a4.023 4.023 0 0 1 1.093-.406c.401-.089.805-.16 1.21-.211.522-.068.944-.12 1.267-.157.328-.036.57-.098.726-.187.156-.089.234-.24.234-.453v-.047c0-.36-.067-.664-.203-.914a1.359 1.359 0 0 0-.617-.578c-.27-.136-.607-.203-1.008-.203-.411 0-.765.065-1.062.195-.297.13-.54.294-.727.492a1.978 1.978 0 0 0-.398.617l-1.352-.398c.203-.526.49-.943.86-1.25.37-.313.784-.536 1.242-.672.463-.14.93-.21 1.398-.21.313 0 .657.038 1.032.116a3.22 3.22 0 0 1 1.07.438c.338.208.617.513.836.914.218.4.328.927.328 1.578V64h-1.375v-1.188h-.094a2.384 2.384 0 0 1-.469.626 2.59 2.59 0 0 1-.843.539c-.344.145-.766.218-1.266.218Zm.242-1.234c.521 0 .959-.102 1.313-.305.36-.203.63-.466.812-.789.188-.323.281-.664.281-1.023v-1.188c-.057.068-.18.128-.367.18a6.55 6.55 0 0 1-.648.14c-.24.042-.477.079-.711.11-.23.026-.417.05-.563.07a4.55 4.55 0 0 0-.945.219 1.655 1.655 0 0 0-.703.438c-.177.192-.266.455-.266.789 0 .296.076.546.227.75.156.198.37.349.64.453.271.104.581.156.93.156Zm7.61-10.602V64h-1.399V52.36h1.399Zm6.093 2.961v1.196h-4.515V55.32h4.515Zm-3.18-2.101h1.4v8.547c0 .38.075.659.226.836.156.171.419.257.789.257.088 0 .2-.007.336-.023.14-.02.268-.042.382-.063l.258 1.188c-.14.047-.302.08-.484.102a4.94 4.94 0 0 1-.54.03c-.75 0-1.332-.192-1.75-.577-.41-.391-.616-.938-.616-1.641v-8.656Zm6.32 5.593V64h-1.398V52.36h1.399v5.062h-.258c.266-.797.643-1.365 1.133-1.703.495-.344 1.07-.516 1.727-.516.588 0 1.104.122 1.546.367.448.24.797.605 1.047 1.094.25.484.375 1.096.375 1.836V64h-1.398v-5.383c0-.677-.177-1.203-.531-1.578-.35-.38-.829-.57-1.438-.57-.417 0-.792.09-1.125.273a1.92 1.92 0 0 0-.789.79c-.193.348-.29.775-.29 1.28Z"/></svg>