<svg xmlns="http://www.w3.org/2000/svg" viewBox="0 0 24 24" fill="currentColor"><path d="M15.34 3.8c-.08 0-.16 0-.24.04a.58.58 0 0 0-.2.12 3.19 3.19 0 0 0-.76 1.32c-.6-.28-1.24-.44-1.84-.44-2.72 0-4.04 3.4-4.44 5.12l-1.52.48c-.48.16-.48.16-.56.6L4.28 21.2 16.04 23.6l6.16-1.32S18.58 4.12 18.54 3.92a.58.58 0 0 0-.44-.16l-2.76.04zm-1.04 1.96v.2l-2.56.8c.48-1.88 1.44-2.8 2.28-3.04a2.83 2.83 0 0 1 .28 2.04zm-1.24-2.44c.16 0 .28.04.44.08-.88.4-1.8 1.44-2.2 3.48l-2.04.64c.56-1.92 1.88-4.2 3.8-4.2zm.48 5.48c-.84-.04-1.76.24-1.76.24s-.48-1-.48-1.72a2.4 2.4 0 0 1 .08-.72l3.2-1c.08.36.12.76.12 1.2 0 .88-.4 2-.44 2H13.54z"/></svg>