<svg xmlns="http://www.w3.org/2000/svg" width="24" height="24" fill="none"><path fill="#fff" d="M12.75 11.25v9a.75.75 0 1 1-1.5 0v-9a.75.75 0 1 1 1.5 0Zm6 6.75a.75.75 0 0 0-.75.75v1.5a.75.75 0 1 0 1.5 0v-1.5a.75.75 0 0 0-.75-.75ZM21 15h-1.5V3.75a.75.75 0 1 0-1.5 0V15h-1.5a.75.75 0 1 0 0 1.5H21a.75.75 0 1 0 0-1.5ZM5.25 15a.75.75 0 0 0-.75.75v4.5a.75.75 0 1 0 1.5 0v-4.5a.75.75 0 0 0-.75-.75Zm2.25-3H6V3.75a.75.75 0 0 0-1.5 0V12H3a.75.75 0 1 0 0 1.5h4.5a.75.75 0 1 0 0-1.5Zm6.75-4.5h-1.5V3.75a.75.75 0 1 0-1.5 0V7.5h-1.5a.75.75 0 0 0 0 1.5h4.5a.75.75 0 1 0 0-1.5Z"/></svg>