<svg xmlns="http://www.w3.org/2000/svg" width="24" height="24" fill="none"><path fill="#fff" d="m20.847 14.855-4.416-1.979-.013-.005a1.5 1.5 0 0 0-1.492.184L12.644 15c-1.446-.702-2.938-2.184-3.64-3.61l1.948-2.317a1.5 1.5 0 0 0 .177-1.484v-.011L9.144 3.154a1.5 1.5 0 0 0-1.558-.893A5.274 5.274 0 0 0 3 7.5C3 14.944 9.056 21 16.5 21a5.274 5.274 0 0 0 5.239-4.586 1.5 1.5 0 0 0-.892-1.559ZM16.5 19.5a12.014 12.014 0 0 1-12-12 3.769 3.769 0 0 1 3.27-3.75v.011l1.968 4.406-1.938 2.32a.574.574 0 0 0-.053.072 1.5 1.5 0 0 0-.094 1.472c.85 1.737 2.6 3.474 4.355 4.323a1.5 1.5 0 0 0 1.477-.107.804.804 0 0 0 .07-.053l2.278-1.944 4.407 1.973h.01A3.77 3.77 0 0 1 16.5 19.5Z"/></svg>