<svg xmlns="http://www.w3.org/2000/svg" width="34" height="34" fill="none"><path fill="#fff" d="m25.11 19.617-4.049-1.814-.01-.005a1.375 1.375 0 0 0-1.369.169L17.59 19.75c-1.325-.644-2.693-2.002-3.337-3.31l1.786-2.123a1.376 1.376 0 0 0 .162-1.36v-.01L14.383 8.89a1.375 1.375 0 0 0-1.428-.818 4.835 4.835 0 0 0-4.204 4.802c0 6.823 5.552 12.375 12.375 12.375a4.835 4.835 0 0 0 4.802-4.204 1.375 1.375 0 0 0-.817-1.428Zm-3.985 4.258a11.012 11.012 0 0 1-11-11 3.455 3.455 0 0 1 2.997-3.438.06.06 0 0 0 0 .01l1.804 4.04-1.776 2.126a1.374 1.374 0 0 0-.135 1.415c.779 1.593 2.383 3.185 3.993 3.963a1.375 1.375 0 0 0 1.417-.146l2.089-1.783 4.04 1.81h.009a3.455 3.455 0 0 1-3.438 3.003Z"/></svg>